solid csg.js
facet normal -1 0 0
outer loop
vertex -10 -5 -0.5
vertex -10 -5 0.5
vertex -10 5 0.5
endloop
endfacet
facet normal -1 0 0
outer loop
vertex -10 -5 -0.5
vertex -10 5 0.5
vertex -10 5 -0.5
endloop
endfacet
facet normal 0 -1 0
outer loop
vertex -10 -5 -0.5
vertex 0 -5 -0.5
vertex 0 -5 0.5
endloop
endfacet
facet normal 0 -1 0
outer loop
vertex -10 -5 -0.5
vertex 0 -5 0.5
vertex -10 -5 0.5
endloop
endfacet
facet normal 0 1 0
outer loop
vertex -10 5 -0.5
vertex -10 5 0.5
vertex 0 5 0.5
endloop
endfacet
facet normal 0 1 0
outer loop
vertex -10 5 -0.5
vertex 0 5 0.5
vertex 0 5 -0.5
endloop
endfacet
facet normal 0 0 -1
outer loop
vertex 0 5 -0.5
vertex 0 4.949747468305832 -0.5
vertex -10 4.949747468305832 -0.5
endloop
endfacet
facet normal 0 0 -1
outer loop
vertex 0 5 -0.5
vertex -10 4.949747468305832 -0.5
vertex -10 5 -0.5
endloop
endfacet
facet normal 0 0 -1
outer loop
vertex 12.374368670764582 15.909902576697318 -0.5
vertex 1.414213562373094 4.949747468305832 -0.5
vertex 0 4.949747468305832 -0.5
endloop
endfacet
facet normal 0 0 -1
outer loop
vertex 12.374368670764582 15.909902576697318 -0.5
vertex 0 4.949747468305832 -0.5
vertex 11.667261889578036 16.617009357883866 -0.5
endloop
endfacet
facet normal 0 0 -1
outer loop
vertex 1.414213562373094 4.949747468305832 -0.5
vertex 0 3.5355339059327378 -0.5
vertex -10 3.5355339059327378 -0.5
endloop
endfacet
facet normal 0 0 -1
outer loop
vertex 1.414213562373094 4.949747468305832 -0.5
vertex -10 3.5355339059327378 -0.5
vertex -10 4.949747468305832 -0.5
endloop
endfacet
facet normal 0 0 -1
outer loop
vertex 0 3.5355339059327378 -0.5
vertex 0 2.9507542983214163 -0.5
vertex -0.5756636062499985 2.894056381880209 -0.5
endloop
endfacet
facet normal 0 0 -1
outer loop
vertex 0 3.5355339059327378 -0.5
vertex -0.5756636062499985 2.894056381880209 -0.5
vertex -10 2.894056381880209 -0.5
endloop
endfacet
facet normal 0 0 -1
outer loop
vertex 0 3.5355339059327378 -0.5
vertex -10 2.894056381880209 -0.5
vertex -10 3.5355339059327378 -0.5
endloop
endfacet
facet normal 0 0 -1
outer loop
vertex -0.5756636062499985 2.894056381880209 -0.5
vertex -1.1292047829476841 2.7261415016888604 -0.5
vertex -10 2.7261415016888604 -0.5
endloop
endfacet
facet normal 0 0 -1
outer loop
vertex -0.5756636062499985 2.894056381880209 -0.5
vertex -10 2.7261415016888604 -0.5
vertex -10 2.894056381880209 -0.5
endloop
endfacet
facet normal 0 0 -1
outer loop
vertex -1.1292047829476841 2.7261415016888604 -0.5
vertex -1.6393512531020238 2.453462532425377 -0.5
vertex -10 2.453462532425377 -0.5
endloop
endfacet
facet normal 0 0 -1
outer loop
vertex -1.1292047829476841 2.7261415016888604 -0.5
vertex -10 2.453462532425377 -0.5
vertex -10 2.7261415016888604 -0.5
endloop
endfacet
facet normal 0 0 -1
outer loop
vertex -1.6393512531020238 2.453462532425377 -0.5
vertex -2.0864983739584284 2.0864983739584266 -0.5
vertex -10 2.0864983739584266 -0.5
endloop
endfacet
facet normal 0 0 -1
outer loop
vertex -1.6393512531020238 2.453462532425377 -0.5
vertex -10 2.0864983739584266 -0.5
vertex -10 2.453462532425377 -0.5
endloop
endfacet
facet normal 0 0 -1
outer loop
vertex -2.0864983739584284 2.0864983739584266 -0.5
vertex -2.4534625324253785 1.6393512531020231 -0.5
vertex -10 1.6393512531020231 -0.5
endloop
endfacet
facet normal 0 0 -1
outer loop
vertex -2.0864983739584284 2.0864983739584266 -0.5
vertex -10 1.6393512531020231 -0.5
vertex -10 2.0864983739584266 -0.5
endloop
endfacet
facet normal 0 0 -1
outer loop
vertex -2.4534625324253785 1.6393512531020231 -0.5
vertex -2.7261415016888613 1.1292047829476823 -0.5
vertex -10 1.1292047829476823 -0.5
endloop
endfacet
facet normal 0 0 -1
outer loop
vertex -2.4534625324253785 1.6393512531020231 -0.5
vertex -10 1.1292047829476823 -0.5
vertex -10 1.6393512531020231 -0.5
endloop
endfacet
facet normal 0 0 -1
outer loop
vertex -2.7261415016888613 1.1292047829476823 -0.5
vertex -2.8940563818802096 0.5756636062499987 -0.5
vertex -10 0.5756636062499987 -0.5
endloop
endfacet
facet normal 0 0 -1
outer loop
vertex -2.7261415016888613 1.1292047829476823 -0.5
vertex -10 0.5756636062499987 -0.5
vertex -10 1.1292047829476823 -0.5
endloop
endfacet
facet normal 0 0 -1
outer loop
vertex -2.8940563818802096 0.5756636062499987 -0.5
vertex -2.950754298321418 -4.440892098500626e-16 -0.5
vertex -10 -4.440892098500626e-16 -0.5
endloop
endfacet
facet normal 0 0 -1
outer loop
vertex -2.8940563818802096 0.5756636062499987 -0.5
vertex -10 -4.440892098500626e-16 -0.5
vertex -10 0.5756636062499987 -0.5
endloop
endfacet
facet normal 0 0 -1
outer loop
vertex -2.950754298321418 -4.440892098500626e-16 -0.5
vertex -2.894056381880209 -0.5756636062500027 -0.5
vertex -10 -0.5756636062500027 -0.5
endloop
endfacet
facet normal 0 0 -1
outer loop
vertex -2.950754298321418 -4.440892098500626e-16 -0.5
vertex -10 -0.5756636062500027 -0.5
vertex -10 -4.440892098500626e-16 -0.5
endloop
endfacet
facet normal 0 0 -1
outer loop
vertex -2.894056381880209 -0.5756636062500027 -0.5
vertex -2.7261415016888604 -1.129204782947686 -0.5
vertex -10 -1.129204782947686 -0.5
endloop
endfacet
facet normal 0 0 -1
outer loop
vertex -2.894056381880209 -0.5756636062500027 -0.5
vertex -10 -1.129204782947686 -0.5
vertex -10 -0.5756636062500027 -0.5
endloop
endfacet
facet normal 0 0 -1
outer loop
vertex -2.7261415016888604 -1.129204782947686 -0.5
vertex -2.453462532425383 -1.6393512531020162 -0.5
vertex -10 -1.6393512531020162 -0.5
endloop
endfacet
facet normal 0 0 -1
outer loop
vertex -2.7261415016888604 -1.129204782947686 -0.5
vertex -10 -1.6393512531020162 -0.5
vertex -10 -1.129204782947686 -0.5
endloop
endfacet
facet normal 0 0 -1
outer loop
vertex -2.453462532425383 -1.6393512531020162 -0.5
vertex -2.086498373958423 -2.086498373958431 -0.5
vertex -10 -2.086498373958431 -0.5
endloop
endfacet
facet normal 0 0 -1
outer loop
vertex -2.453462532425383 -1.6393512531020162 -0.5
vertex -10 -2.086498373958431 -0.5
vertex -10 -1.6393512531020162 -0.5
endloop
endfacet
facet normal 0 0 -1
outer loop
vertex -2.086498373958423 -2.086498373958431 -0.5
vertex -1.6393512531020225 -2.453462532425379 -0.5
vertex -10 -2.453462532425379 -0.5
endloop
endfacet
facet normal 0 0 -1
outer loop
vertex -2.086498373958423 -2.086498373958431 -0.5
vertex -10 -2.453462532425379 -0.5
vertex -10 -2.086498373958431 -0.5
endloop
endfacet
facet normal 0 0 -1
outer loop
vertex -1.6393512531020225 -2.453462532425379 -0.5
vertex -1.1292047829476832 -2.726141501688861 -0.5
vertex -10 -2.726141501688861 -0.5
endloop
endfacet
facet normal 0 0 -1
outer loop
vertex -1.6393512531020225 -2.453462532425379 -0.5
vertex -10 -2.726141501688861 -0.5
vertex -10 -2.453462532425379 -0.5
endloop
endfacet
facet normal 0 0 -1
outer loop
vertex -1.1292047829476832 -2.726141501688861 -0.5
vertex -0.5756636062500018 -2.8940563818802083 -0.5
vertex -10 -2.8940563818802083 -0.5
endloop
endfacet
facet normal 0 0 -1
outer loop
vertex -1.1292047829476832 -2.726141501688861 -0.5
vertex -10 -2.8940563818802083 -0.5
vertex -10 -2.726141501688861 -0.5
endloop
endfacet
facet normal 0 0 -1
outer loop
vertex -0.5756636062500018 -2.8940563818802083 -0.5
vertex 0 -2.9507542983214172 -0.5
vertex 0 -3.5355339059327373 -0.5
endloop
endfacet
facet normal 0 0 -1
outer loop
vertex -0.5756636062500018 -2.8940563818802083 -0.5
vertex 0 -3.5355339059327373 -0.5
vertex -10 -3.5355339059327373 -0.5
endloop
endfacet
facet normal 0 0 -1
outer loop
vertex -0.5756636062500018 -2.8940563818802083 -0.5
vertex -10 -3.5355339059327373 -0.5
vertex -10 -2.8940563818802083 -0.5
endloop
endfacet
facet normal 0 0 -1
outer loop
vertex 0 -3.5355339059327373 -0.5
vertex 1.414213562373093 -4.94974746830583 -0.5
vertex -10 -4.94974746830583 -0.5
endloop
endfacet
facet normal 0 0 -1
outer loop
vertex 0 -3.5355339059327373 -0.5
vertex -10 -4.94974746830583 -0.5
vertex -10 -3.5355339059327373 -0.5
endloop
endfacet
facet normal 0 0 -1
outer loop
vertex 0 -4.94974746830583 -0.5
vertex 0 -5 -0.5
vertex -10 -5 -0.5
endloop
endfacet
facet normal 0 0 -1
outer loop
vertex 0 -4.94974746830583 -0.5
vertex -10 -5 -0.5
vertex -10 -4.94974746830583 -0.5
endloop
endfacet
facet normal 0 0 -1
outer loop
vertex 1.414213562373093 -4.94974746830583 -0.5
vertex 12.374368670764582 -15.909902576697318 -0.5
vertex 11.667261889578036 -16.617009357883866 -0.5
endloop
endfacet
facet normal 0 0 -1
outer loop
vertex 1.414213562373093 -4.94974746830583 -0.5
vertex 11.667261889578036 -16.617009357883866 -0.5
vertex 0 -4.94974746830583 -0.5
endloop
endfacet
facet normal 0 0 1
outer loop
vertex 0 -5 0.5
vertex 0 -4.949747468305832 0.5
vertex -10 -4.949747468305832 0.5
endloop
endfacet
facet normal 0 0 1
outer loop
vertex 0 -5 0.5
vertex -10 -4.949747468305832 0.5
vertex -10 -5 0.5
endloop
endfacet
facet normal 0 0 1
outer loop
vertex 12.374368670764582 -15.909902576697318 0.5
vertex 1.414213562373094 -4.949747468305832 0.5
vertex 0 -4.949747468305832 0.5
endloop
endfacet
facet normal 0 0 1
outer loop
vertex 12.374368670764582 -15.909902576697318 0.5
vertex 0 -4.949747468305832 0.5
vertex 11.667261889578036 -16.617009357883866 0.5
endloop
endfacet
facet normal 0 0 1
outer loop
vertex 1.414213562373094 -4.949747468305832 0.5
vertex 0 -3.5355339059327378 0.5
vertex -10 -3.5355339059327378 0.5
endloop
endfacet
facet normal 0 0 1
outer loop
vertex 1.414213562373094 -4.949747468305832 0.5
vertex -10 -3.5355339059327378 0.5
vertex -10 -4.949747468305832 0.5
endloop
endfacet
facet normal 0 0 1
outer loop
vertex 0 -3.5355339059327378 0.5
vertex 0 -2.9507542983214177 0.5
vertex -0.575663606250012 -2.894056381880208 0.5
endloop
endfacet
facet normal 0 0 1
outer loop
vertex 0 -3.5355339059327378 0.5
vertex -0.575663606250012 -2.894056381880208 0.5
vertex -10 -2.894056381880208 0.5
endloop
endfacet
facet normal 0 0 1
outer loop
vertex 0 -3.5355339059327378 0.5
vertex -10 -2.894056381880208 0.5
vertex -10 -3.5355339059327378 0.5
endloop
endfacet
facet normal 0 0 1
outer loop
vertex -0.575663606250012 -2.894056381880208 0.5
vertex -1.1292047829476854 -2.7261415016888595 0.5
vertex -10 -2.7261415016888595 0.5
endloop
endfacet
facet normal 0 0 1
outer loop
vertex -0.575663606250012 -2.894056381880208 0.5
vertex -10 -2.7261415016888595 0.5
vertex -10 -2.894056381880208 0.5
endloop
endfacet
facet normal 0 0 1
outer loop
vertex -1.1292047829476854 -2.7261415016888595 0.5
vertex -1.639351253102018 -2.4534625324253816 0.5
vertex -10 -2.4534625324253816 0.5
endloop
endfacet
facet normal 0 0 1
outer loop
vertex -1.1292047829476854 -2.7261415016888595 0.5
vertex -10 -2.4534625324253816 0.5
vertex -10 -2.7261415016888595 0.5
endloop
endfacet
facet normal 0 0 1
outer loop
vertex -1.639351253102018 -2.4534625324253816 0.5
vertex -2.0864983739584293 -2.0864983739584257 0.5
vertex -10 -2.0864983739584257 0.5
endloop
endfacet
facet normal 0 0 1
outer loop
vertex -1.639351253102018 -2.4534625324253816 0.5
vertex -10 -2.0864983739584257 0.5
vertex -10 -2.4534625324253816 0.5
endloop
endfacet
facet normal 0 0 1
outer loop
vertex -2.0864983739584293 -2.0864983739584257 0.5
vertex -2.453462532425379 -1.639351253102023 0.5
vertex -10 -1.639351253102023 0.5
endloop
endfacet
facet normal 0 0 1
outer loop
vertex -2.0864983739584293 -2.0864983739584257 0.5
vertex -10 -1.639351253102023 0.5
vertex -10 -2.0864983739584257 0.5
endloop
endfacet
facet normal 0 0 1
outer loop
vertex -2.453462532425379 -1.639351253102023 0.5
vertex -2.7261415016888595 -1.1292047829476854 0.5
vertex -10 -1.1292047829476854 0.5
endloop
endfacet
facet normal 0 0 1
outer loop
vertex -2.453462532425379 -1.639351253102023 0.5
vertex -10 -1.1292047829476854 0.5
vertex -10 -1.639351253102023 0.5
endloop
endfacet
facet normal 0 0 1
outer loop
vertex -2.7261415016888595 -1.1292047829476854 0.5
vertex -2.8940563818802088 -0.5756636062500012 0.5
vertex -10 -0.5756636062500012 0.5
endloop
endfacet
facet normal 0 0 1
outer loop
vertex -2.7261415016888595 -1.1292047829476854 0.5
vertex -10 -0.5756636062500012 0.5
vertex -10 -1.1292047829476854 0.5
endloop
endfacet
facet normal 0 0 1
outer loop
vertex -2.8940563818802088 -0.5756636062500012 0.5
vertex -2.9507542983214172 -2.1094237467877974e-15 0.5
vertex -10 -2.1094237467877974e-15 0.5
endloop
endfacet
facet normal 0 0 1
outer loop
vertex -2.8940563818802088 -0.5756636062500012 0.5
vertex -10 -2.1094237467877974e-15 0.5
vertex -10 -0.5756636062500012 0.5
endloop
endfacet
facet normal 0 0 1
outer loop
vertex -2.9507542983214172 -2.1094237467877974e-15 0.5
vertex -2.8940563818802083 0.5756636062500033 0.5
vertex -10 0.5756636062500033 0.5
endloop
endfacet
facet normal 0 0 1
outer loop
vertex -2.9507542983214172 -2.1094237467877974e-15 0.5
vertex -10 0.5756636062500033 0.5
vertex -10 -2.1094237467877974e-15 0.5
endloop
endfacet
facet normal 0 0 1
outer loop
vertex -2.8940563818802083 0.5756636062500033 0.5
vertex -2.7261415016888613 1.1292047829476823 0.5
vertex -10 1.1292047829476823 0.5
endloop
endfacet
facet normal 0 0 1
outer loop
vertex -2.8940563818802083 0.5756636062500033 0.5
vertex -10 1.1292047829476823 0.5
vertex -10 0.5756636062500033 0.5
endloop
endfacet
facet normal 0 0 1
outer loop
vertex -2.7261415016888613 1.1292047829476823 0.5
vertex -2.4534625324253794 1.6393512531020218 0.5
vertex -10 1.6393512531020218 0.5
endloop
endfacet
facet normal 0 0 1
outer loop
vertex -2.7261415016888613 1.1292047829476823 0.5
vertex -10 1.6393512531020218 0.5
vertex -10 1.1292047829476823 0.5
endloop
endfacet
facet normal 0 0 1
outer loop
vertex -2.4534625324253794 1.6393512531020218 0.5
vertex -2.0864983739584257 2.0864983739584293 0.5
vertex -10 2.0864983739584293 0.5
endloop
endfacet
facet normal 0 0 1
outer loop
vertex -2.4534625324253794 1.6393512531020218 0.5
vertex -10 2.0864983739584293 0.5
vertex -10 1.6393512531020218 0.5
endloop
endfacet
facet normal 0 0 1
outer loop
vertex -2.0864983739584257 2.0864983739584293 0.5
vertex -1.6393512531020262 2.4534625324253763 0.5
vertex -10 2.4534625324253763 0.5
endloop
endfacet
facet normal 0 0 1
outer loop
vertex -2.0864983739584257 2.0864983739584293 0.5
vertex -10 2.4534625324253763 0.5
vertex -10 2.0864983739584293 0.5
endloop
endfacet
facet normal 0 0 1
outer loop
vertex -1.6393512531020262 2.4534625324253763 0.5
vertex -1.1292047829476846 2.72614150168886 0.5
vertex -10 2.72614150168886 0.5
endloop
endfacet
facet normal 0 0 1
outer loop
vertex -1.6393512531020262 2.4534625324253763 0.5
vertex -10 2.72614150168886 0.5
vertex -10 2.4534625324253763 0.5
endloop
endfacet
facet normal 0 0 1
outer loop
vertex -1.1292047829476846 2.72614150168886 0.5
vertex -0.5756636062500015 2.8940563818802083 0.5
vertex -10 2.8940563818802083 0.5
endloop
endfacet
facet normal 0 0 1
outer loop
vertex -1.1292047829476846 2.72614150168886 0.5
vertex -10 2.8940563818802083 0.5
vertex -10 2.72614150168886 0.5
endloop
endfacet
facet normal 0 0 1
outer loop
vertex -0.5756636062500015 2.8940563818802083 0.5
vertex 0 2.9507542983214177 0.5
vertex 0 3.5355339059327373 0.5
endloop
endfacet
facet normal 0 0 1
outer loop
vertex -0.5756636062500015 2.8940563818802083 0.5
vertex 0 3.5355339059327373 0.5
vertex -10 3.5355339059327373 0.5
endloop
endfacet
facet normal 0 0 1
outer loop
vertex -0.5756636062500015 2.8940563818802083 0.5
vertex -10 3.5355339059327373 0.5
vertex -10 2.8940563818802083 0.5
endloop
endfacet
facet normal 0 0 1
outer loop
vertex 0 3.5355339059327373 0.5
vertex 1.4142135623730947 4.949747468305832 0.5
vertex -10 4.949747468305832 0.5
endloop
endfacet
facet normal 0 0 1
outer loop
vertex 0 3.5355339059327373 0.5
vertex -10 4.949747468305832 0.5
vertex -10 3.5355339059327373 0.5
endloop
endfacet
facet normal 0 0 1
outer loop
vertex 0 4.949747468305832 0.5
vertex 0 5 0.5
vertex -10 5 0.5
endloop
endfacet
facet normal 0 0 1
outer loop
vertex 0 4.949747468305832 0.5
vertex -10 5 0.5
vertex -10 4.949747468305832 0.5
endloop
endfacet
facet normal 0 0 1
outer loop
vertex 1.4142135623730947 4.949747468305832 0.5
vertex 12.374368670764582 15.909902576697318 0.5
vertex 11.667261889578036 16.617009357883866 0.5
endloop
endfacet
facet normal 0 0 1
outer loop
vertex 1.4142135623730947 4.949747468305832 0.5
vertex 11.667261889578036 16.617009357883866 0.5
vertex 0 4.949747468305832 0.5
endloop
endfacet
facet normal 1 0 0
outer loop
vertex 0 -2.9507542983214172 -0.5
vertex 0 -2.999999999999999 -5.051514762044462e-15
vertex 0 -3.5355339059327373 -5.051514762044462e-15
endloop
endfacet
facet normal 1 0 0
outer loop
vertex 0 -2.9507542983214172 -0.5
vertex 0 -3.5355339059327373 -5.051514762044462e-15
vertex 0 -3.5355339059327373 -0.5
endloop
endfacet
facet normal 1 0 0
outer loop
vertex 0 3.5355339059327378 -0.5
vertex 0 3.5355339059327378 -5.051514762044462e-15
vertex 0 2.999999999999999 -5.051514762044462e-15
endloop
endfacet
facet normal 1 0 0
outer loop
vertex 0 3.5355339059327378 -0.5
vertex 0 2.999999999999999 -5.051514762044462e-15
vertex 0 2.9507542983214163 -0.5
endloop
endfacet
facet normal 1 0 0
outer loop
vertex 0 -4.94974746830583 -0.5
vertex 0 -4.949747468305832 0.5
vertex 0 -5 0.5
endloop
endfacet
facet normal 1 0 0
outer loop
vertex 0 -4.94974746830583 -0.5
vertex 0 -5 0.5
vertex 0 -5 -0.5
endloop
endfacet
facet normal 1 0 0
outer loop
vertex 0 -2.999999999999999 -5.051514762044462e-15
vertex 0 -2.9507542983214177 0.5
vertex 0 -3.5355339059327378 0.5
endloop
endfacet
facet normal 1 0 0
outer loop
vertex 0 -2.999999999999999 -5.051514762044462e-15
vertex 0 -3.5355339059327378 0.5
vertex 0 -3.5355339059327373 -5.051514762044462e-15
endloop
endfacet
facet normal 1 0 0
outer loop
vertex 0 3.5355339059327378 -5.051514762044462e-15
vertex 0 3.5355339059327373 0.5
vertex 0 2.9507542983214177 0.5
endloop
endfacet
facet normal 1 0 0
outer loop
vertex 0 3.5355339059327378 -5.051514762044462e-15
vertex 0 2.9507542983214177 0.5
vertex 0 2.999999999999999 -5.051514762044462e-15
endloop
endfacet
facet normal 1 0 0
outer loop
vertex 0 5 -0.5
vertex 0 5 0.5
vertex 0 4.949747468305832 0.5
endloop
endfacet
facet normal 1 0 0
outer loop
vertex 0 5 -0.5
vertex 0 4.949747468305832 0.5
vertex 0 4.949747468305832 -0.5
endloop
endfacet
facet normal 0.7071067811865476 0.7071067811865476 0
outer loop
vertex 12.374368670764582 15.909902576697318 -0.5
vertex 11.667261889578036 16.617009357883866 -0.5
vertex 11.667261889578036 16.617009357883866 0.5
endloop
endfacet
facet normal 0.7071067811865476 0.7071067811865476 0
outer loop
vertex 12.374368670764582 15.909902576697318 -0.5
vertex 11.667261889578036 16.617009357883866 0.5
vertex 12.374368670764582 15.909902576697318 0.5
endloop
endfacet
facet normal 0.7071067811865475 -0.7071067811865477 0
outer loop
vertex 0 3.5355339059327378 -0.5
vertex 12.374368670764582 15.909902576697318 -0.5
vertex 12.374368670764582 15.909902576697318 0.5
endloop
endfacet
facet normal 0.7071067811865475 -0.7071067811865477 0
outer loop
vertex 0 3.5355339059327378 -0.5
vertex 12.374368670764582 15.909902576697318 0.5
vertex 0 3.5355339059327373 0.5
endloop
endfacet
facet normal -0.7071067811865476 0.7071067811865476 0
outer loop
vertex 0 4.949747468305832 0.5
vertex 11.667261889578036 16.617009357883866 0.5
vertex 11.667261889578036 16.617009357883866 -0.5
endloop
endfacet
facet normal -0.7071067811865476 0.7071067811865476 0
outer loop
vertex 0 4.949747468305832 0.5
vertex 11.667261889578036 16.617009357883866 -0.5
vertex 0 4.949747468305832 -0.5
endloop
endfacet
facet normal 0.7071067811865476 -0.7071067811865476 0
outer loop
vertex 11.667261889578036 -16.617009357883866 -0.5
vertex 12.374368670764582 -15.909902576697318 -0.5
vertex 12.374368670764582 -15.909902576697318 0.5
endloop
endfacet
facet normal 0.7071067811865476 -0.7071067811865476 0
outer loop
vertex 11.667261889578036 -16.617009357883866 -0.5
vertex 12.374368670764582 -15.909902576697318 0.5
vertex 11.667261889578036 -16.617009357883866 0.5
endloop
endfacet
facet normal -0.7071067811865476 -0.7071067811865476 0
outer loop
vertex 11.667261889578036 -16.617009357883866 0.5
vertex 0 -4.949747468305832 0.5
vertex 0 -4.94974746830583 -0.5
endloop
endfacet
facet normal -0.7071067811865476 -0.7071067811865476 0
outer loop
vertex 11.667261889578036 -16.617009357883866 0.5
vertex 0 -4.94974746830583 -0.5
vertex 11.667261889578036 -16.617009357883866 -0.5
endloop
endfacet
facet normal 0.7071067811865475 0.7071067811865477 0
outer loop
vertex 0 -3.5355339059327378 0.5
vertex 12.374368670764582 -15.909902576697318 0.5
vertex 12.374368670764582 -15.909902576697318 -0.5
endloop
endfacet
facet normal 0.7071067811865475 0.7071067811865477 0
outer loop
vertex 0 -3.5355339059327378 0.5
vertex 12.374368670764582 -15.909902576697318 -0.5
vertex 0 -3.5355339059327373 -0.5
endloop
endfacet
facet normal 0.09754966309535143 0.9904383506609419 0.09754966309535149
outer loop
vertex 0 -2.9507542983214172 -0.5
vertex -0.5756636062500018 -2.8940563818802083 -0.5
vertex -0.5852709660483846 -2.9423558412096913 0
endloop
endfacet
facet normal 0.09754966309535143 0.9904383506609419 0.09754966309535149
outer loop
vertex 0 -2.9507542983214172 -0.5
vertex -0.5852709660483846 -2.9423558412096913 0
vertex 0 -2.999999999999999 -5.051514762044462e-15
endloop
endfacet
facet normal 0.09754966309535147 0.9904383506609419 -0.09754966309535147
outer loop
vertex 0 -2.9507542983214177 0.5
vertex 0 -2.999999999999999 -5.051514762044462e-15
vertex -0.5852709660483846 -2.9423558412096913 0
endloop
endfacet
facet normal 0.09754966309535147 0.9904383506609419 -0.09754966309535147
outer loop
vertex 0 -2.9507542983214177 0.5
vertex -0.5852709660483846 -2.9423558412096913 0
vertex -0.575663606250012 -2.894056381880208 0.5
endloop
endfacet
facet normal 0.28890021043978115 0.9523763602892679 0.09754966309535175
outer loop
vertex -0.5756636062500018 -2.8940563818802083 -0.5
vertex -1.1292047829476832 -2.726141501688861 -0.5
vertex -1.1480502970952693 -2.77163859753386 0
endloop
endfacet
facet normal 0.28890021043978115 0.9523763602892679 0.09754966309535175
outer loop
vertex -0.5756636062500018 -2.8940563818802083 -0.5
vertex -1.1480502970952693 -2.77163859753386 0
vertex -0.5852709660483846 -2.9423558412096913 0
endloop
endfacet
facet normal 0.2889002104397815 0.9523763602892679 -0.09754966309535176
outer loop
vertex -0.575663606250012 -2.894056381880208 0.5
vertex -0.5852709660483846 -2.9423558412096913 0
vertex -1.1480502970952693 -2.77163859753386 0
endloop
endfacet
facet normal 0.2889002104397815 0.9523763602892679 -0.09754966309535176
outer loop
vertex -0.575663606250012 -2.894056381880208 0.5
vertex -1.1480502970952693 -2.77163859753386 0
vertex -1.1292047829476854 -2.7261415016888595 0.5
endloop
endfacet
facet normal 0.469148484714114 0.8777150804904938 0.09754966309535115
outer loop
vertex -1.1292047829476832 -2.726141501688861 -0.5
vertex -1.6393512531020225 -2.453462532425379 -0.5
vertex -1.6667106990588059 -2.494408836907636 0
endloop
endfacet
facet normal 0.469148484714114 0.8777150804904938 0.09754966309535115
outer loop
vertex -1.1292047829476832 -2.726141501688861 -0.5
vertex -1.6667106990588059 -2.494408836907636 0
vertex -1.1480502970952693 -2.77163859753386 0
endloop
endfacet
facet normal 0.4691484847141135 0.8777150804904941 -0.0975496630953511
outer loop
vertex -1.1292047829476854 -2.7261415016888595 0.5
vertex -1.1480502970952693 -2.77163859753386 0
vertex -1.6667106990588059 -2.494408836907636 0
endloop
endfacet
facet normal 0.4691484847141135 0.8777150804904941 -0.0975496630953511
outer loop
vertex -1.1292047829476854 -2.7261415016888595 0.5
vertex -1.6667106990588059 -2.494408836907636 0
vertex -1.639351253102018 -2.4534625324253816 0.5
endloop
endfacet
facet normal 0.6313676458223852 0.769323702376758 0.09754966309535124
outer loop
vertex -1.6393512531020225 -2.453462532425379 -0.5
vertex -2.086498373958423 -2.086498373958431 -0.5
vertex -2.1213203435596424 -2.121320343559643 0
endloop
endfacet
facet normal 0.6313676458223852 0.769323702376758 0.09754966309535124
outer loop
vertex -1.6393512531020225 -2.453462532425379 -0.5
vertex -2.1213203435596424 -2.121320343559643 0
vertex -1.6667106990588059 -2.494408836907636 0
endloop
endfacet
facet normal 0.6313676458223852 0.769323702376758 -0.0975496630953512
outer loop
vertex -1.639351253102018 -2.4534625324253816 0.5
vertex -1.6667106990588059 -2.494408836907636 0
vertex -2.1213203435596424 -2.121320343559643 0
endloop
endfacet
facet normal 0.6313676458223852 0.769323702376758 -0.0975496630953512
outer loop
vertex -1.639351253102018 -2.4534625324253816 0.5
vertex -2.1213203435596424 -2.121320343559643 0
vertex -2.0864983739584293 -2.0864983739584257 0.5
endloop
endfacet
facet normal 0.7693237023767575 0.6313676458223859 0.09754966309535114
outer loop
vertex -2.086498373958423 -2.086498373958431 -0.5
vertex -2.453462532425383 -1.6393512531020162 -0.5
vertex -2.494408836907636 -1.6667106990588065 0
endloop
endfacet
facet normal 0.7693237023767575 0.6313676458223859 0.09754966309535114
outer loop
vertex -2.086498373958423 -2.086498373958431 -0.5
vertex -2.494408836907636 -1.6667106990588065 0
vertex -2.1213203435596424 -2.121320343559643 0
endloop
endfacet
facet normal 0.7693237023767575 0.6313676458223859 -0.09754966309535117
outer loop
vertex -2.0864983739584293 -2.0864983739584257 0.5
vertex -2.1213203435596424 -2.121320343559643 0
vertex -2.494408836907636 -1.6667106990588065 0
endloop
endfacet
facet normal 0.7693237023767575 0.6313676458223859 -0.09754966309535117
outer loop
vertex -2.0864983739584293 -2.0864983739584257 0.5
vertex -2.494408836907636 -1.6667106990588065 0
vertex -2.453462532425379 -1.639351253102023 0.5
endloop
endfacet
facet normal 0.8777150804904938 0.4691484847141139 0.09754966309535176
outer loop
vertex -2.453462532425383 -1.6393512531020162 -0.5
vertex -2.7261415016888604 -1.129204782947686 -0.5
vertex -2.77163859753386 -1.1480502970952697 0
endloop
endfacet
facet normal 0.8777150804904938 0.4691484847141139 0.09754966309535176
outer loop
vertex -2.453462532425383 -1.6393512531020162 -0.5
vertex -2.77163859753386 -1.1480502970952697 0
vertex -2.494408836907636 -1.6667106990588065 0
endloop
endfacet
facet normal 0.8777150804904942 0.46914848471411336 -0.09754966309535175
outer loop
vertex -2.453462532425379 -1.639351253102023 0.5
vertex -2.494408836907636 -1.6667106990588065 0
vertex -2.77163859753386 -1.1480502970952697 0
endloop
endfacet
facet normal 0.8777150804904942 0.46914848471411336 -0.09754966309535175
outer loop
vertex -2.453462532425379 -1.639351253102023 0.5
vertex -2.77163859753386 -1.1480502970952697 0
vertex -2.7261415016888595 -1.1292047829476854 0.5
endloop
endfacet
facet normal 0.9523763602892679 0.28890021043978154 0.09754966309535147
outer loop
vertex -2.7261415016888604 -1.129204782947686 -0.5
vertex -2.894056381880209 -0.5756636062500027 -0.5
vertex -2.9423558412096913 -0.5852709660483858 0
endloop
endfacet
facet normal 0.9523763602892679 0.28890021043978154 0.09754966309535147
outer loop
vertex -2.7261415016888604 -1.129204782947686 -0.5
vertex -2.9423558412096913 -0.5852709660483858 0
vertex -2.77163859753386 -1.1480502970952697 0
endloop
endfacet
facet normal 0.9523763602892679 0.2889002104397818 -0.09754966309535144
outer loop
vertex -2.7261415016888595 -1.1292047829476854 0.5
vertex -2.77163859753386 -1.1480502970952697 0
vertex -2.9423558412096913 -0.5852709660483858 0
endloop
endfacet
facet normal 0.9523763602892679 0.2889002104397818 -0.09754966309535144
outer loop
vertex -2.7261415016888595 -1.1292047829476854 0.5
vertex -2.9423558412096913 -0.5852709660483858 0
vertex -2.8940563818802088 -0.5756636062500012 0.5
endloop
endfacet
facet normal 0.9904383506609419 0.0975496630953513 0.0975496630953514
outer loop
vertex -2.894056381880209 -0.5756636062500027 -0.5
vertex -2.950754298321418 -4.440892098500626e-16 -0.5
vertex -3 -3.6739403974420594e-16 0
endloop
endfacet
facet normal 0.9904383506609419 0.0975496630953513 0.0975496630953514
outer loop
vertex -2.894056381880209 -0.5756636062500027 -0.5
vertex -3 -3.6739403974420594e-16 0
vertex -2.9423558412096913 -0.5852709660483858 0
endloop
endfacet
facet normal 0.9904383506609419 0.09754966309535136 -0.0975496630953514
outer loop
vertex -2.8940563818802088 -0.5756636062500012 0.5
vertex -2.9423558412096913 -0.5852709660483858 0
vertex -3 -3.6739403974420594e-16 0
endloop
endfacet
facet normal 0.9904383506609419 0.09754966309535136 -0.0975496630953514
outer loop
vertex -2.8940563818802088 -0.5756636062500012 0.5
vertex -3 -3.6739403974420594e-16 0
vertex -2.9507542983214172 -2.1094237467877974e-15 0.5
endloop
endfacet
facet normal 0.9904383506609419 -0.09754966309535133 0.09754966309535146
outer loop
vertex -2.950754298321418 -4.440892098500626e-16 -0.5
vertex -2.8940563818802096 0.5756636062499987 -0.5
vertex -2.9423558412096913 0.585270966048385 0
endloop
endfacet
facet normal 0.9904383506609419 -0.09754966309535133 0.09754966309535146
outer loop
vertex -2.950754298321418 -4.440892098500626e-16 -0.5
vertex -2.9423558412096913 0.585270966048385 0
vertex -3 -3.6739403974420594e-16 0
endloop
endfacet
facet normal 0.9904383506609419 -0.09754966309535137 -0.09754966309535146
outer loop
vertex -2.9507542983214172 -2.1094237467877974e-15 0.5
vertex -3 -3.6739403974420594e-16 0
vertex -2.9423558412096913 0.585270966048385 0
endloop
endfacet
facet normal 0.9904383506609419 -0.09754966309535137 -0.09754966309535146
outer loop
vertex -2.9507542983214172 -2.1094237467877974e-15 0.5
vertex -2.9423558412096913 0.585270966048385 0
vertex -2.8940563818802083 0.5756636062500033 0.5
endloop
endfacet
facet normal 0.952376360289268 -0.28890021043978076 0.09754966309535171
outer loop
vertex -2.8940563818802096 0.5756636062499987 -0.5
vertex -2.7261415016888613 1.1292047829476823 -0.5
vertex -2.7716385975338604 1.148050297095269 0
endloop
endfacet
facet normal 0.952376360289268 -0.28890021043978076 0.09754966309535171
outer loop
vertex -2.8940563818802096 0.5756636062499987 -0.5
vertex -2.7716385975338604 1.148050297095269 0
vertex -2.9423558412096913 0.585270966048385 0
endloop
endfacet
facet normal 0.952376360289268 -0.28890021043978104 -0.09754966309535178
outer loop
vertex -2.8940563818802083 0.5756636062500033 0.5
vertex -2.9423558412096913 0.585270966048385 0
vertex -2.7716385975338604 1.148050297095269 0
endloop
endfacet
facet normal 0.952376360289268 -0.28890021043978104 -0.09754966309535178
outer loop
vertex -2.8940563818802083 0.5756636062500033 0.5
vertex -2.7716385975338604 1.148050297095269 0
vertex -2.7261415016888613 1.1292047829476823 0.5
endloop
endfacet
facet normal 0.877715080490494 -0.46914848471411397 0.09754966309535112
outer loop
vertex -2.7261415016888613 1.1292047829476823 -0.5
vertex -2.4534625324253785 1.6393512531020231 -0.5
vertex -2.4944088369076365 1.6667106990588059 0
endloop
endfacet
facet normal 0.877715080490494 -0.46914848471411397 0.09754966309535112
outer loop
vertex -2.7261415016888613 1.1292047829476823 -0.5
vertex -2.4944088369076365 1.6667106990588059 0
vertex -2.7716385975338604 1.148050297095269 0
endloop
endfacet
facet normal 0.8777150804904943 -0.46914848471411347 -0.09754966309535111
outer loop
vertex -2.7261415016888613 1.1292047829476823 0.5
vertex -2.7716385975338604 1.148050297095269 0
vertex -2.4944088369076365 1.6667106990588059 0
endloop
endfacet
facet normal 0.8777150804904943 -0.46914848471411347 -0.09754966309535111
outer loop
vertex -2.7261415016888613 1.1292047829476823 0.5
vertex -2.4944088369076365 1.6667106990588059 0
vertex -2.4534625324253794 1.6393512531020218 0.5
endloop
endfacet
facet normal 0.7693237023767576 -0.6313676458223857 0.09754966309535118
outer loop
vertex -2.4534625324253785 1.6393512531020231 -0.5
vertex -2.0864983739584284 2.0864983739584266 -0.5
vertex -2.121320343559643 2.1213203435596424 0
endloop
endfacet
facet normal 0.7693237023767576 -0.6313676458223857 0.09754966309535118
outer loop
vertex -2.4534625324253785 1.6393512531020231 -0.5
vertex -2.121320343559643 2.1213203435596424 0
vertex -2.4944088369076365 1.6667106990588059 0
endloop
endfacet
facet normal 0.7693237023767576 -0.6313676458223857 -0.09754966309535122
outer loop
vertex -2.4534625324253794 1.6393512531020218 0.5
vertex -2.4944088369076365 1.6667106990588059 0
vertex -2.121320343559643 2.1213203435596424 0
endloop
endfacet
facet normal 0.7693237023767576 -0.6313676458223857 -0.09754966309535122
outer loop
vertex -2.4534625324253794 1.6393512531020218 0.5
vertex -2.121320343559643 2.1213203435596424 0
vertex -2.0864983739584257 2.0864983739584293 0.5
endloop
endfacet
facet normal 0.6313676458223855 -0.769323702376758 0.0975496630953511
outer loop
vertex -2.0864983739584284 2.0864983739584266 -0.5
vertex -1.6393512531020238 2.453462532425377 -0.5
vertex -1.6667106990588065 2.4944088369076356 0
endloop
endfacet
facet normal 0.6313676458223855 -0.769323702376758 0.0975496630953511
outer loop
vertex -2.0864983739584284 2.0864983739584266 -0.5
vertex -1.6667106990588065 2.4944088369076356 0
vertex -2.121320343559643 2.1213203435596424 0
endloop
endfacet
facet normal 0.6313676458223855 -0.769323702376758 -0.09754966309535114
outer loop
vertex -2.0864983739584257 2.0864983739584293 0.5
vertex -2.121320343559643 2.1213203435596424 0
vertex -1.6667106990588065 2.4944088369076356 0
endloop
endfacet
facet normal 0.6313676458223855 -0.769323702376758 -0.09754966309535114
outer loop
vertex -2.0864983739584257 2.0864983739584293 0.5
vertex -1.6667106990588065 2.4944088369076356 0
vertex -1.6393512531020262 2.4534625324253763 0.5
endloop
endfacet
facet normal 0.4691484847141148 -0.8777150804904933 0.09754966309535171
outer loop
vertex -1.6393512531020238 2.453462532425377 -0.5
vertex -1.1292047829476841 2.7261415016888604 -0.5
vertex -1.148050297095271 2.7716385975338595 0
endloop
endfacet
facet normal 0.4691484847141148 -0.8777150804904933 0.09754966309535171
outer loop
vertex -1.6393512531020238 2.453462532425377 -0.5
vertex -1.148050297095271 2.7716385975338595 0
vertex -1.6667106990588065 2.4944088369076356 0
endloop
endfacet
facet normal 0.46914848471411436 -0.8777150804904937 -0.09754966309535172
outer loop
vertex -1.6393512531020262 2.4534625324253763 0.5
vertex -1.6667106990588065 2.4944088369076356 0
vertex -1.148050297095271 2.7716385975338595 0
endloop
endfacet
facet normal 0.46914848471411436 -0.8777150804904937 -0.09754966309535172
outer loop
vertex -1.6393512531020262 2.4534625324253763 0.5
vertex -1.148050297095271 2.7716385975338595 0
vertex -1.1292047829476846 2.72614150168886 0.5
endloop
endfacet
facet normal 0.28890021043978104 -0.9523763602892681 0.09754966309535143
outer loop
vertex -1.1292047829476841 2.7261415016888604 -0.5
vertex -0.5756636062499985 2.894056381880209 -0.5
vertex -0.585270966048386 2.942355841209691 0
endloop
endfacet
facet normal 0.28890021043978104 -0.9523763602892681 0.09754966309535143
outer loop
vertex -1.1292047829476841 2.7261415016888604 -0.5
vertex -0.585270966048386 2.942355841209691 0
vertex -1.148050297095271 2.7716385975338595 0
endloop
endfacet
facet normal 0.2889002104397813 -0.952376360289268 -0.09754966309535147
outer loop
vertex -1.1292047829476846 2.72614150168886 0.5
vertex -1.148050297095271 2.7716385975338595 0
vertex -0.585270966048386 2.942355841209691 0
endloop
endfacet
facet normal 0.2889002104397813 -0.952376360289268 -0.09754966309535147
outer loop
vertex -1.1292047829476846 2.72614150168886 0.5
vertex -0.585270966048386 2.942355841209691 0
vertex -0.5756636062500015 2.8940563818802083 0.5
endloop
endfacet
facet normal 0.09754966309535203 -0.9904383506609418 0.0975496630953514
outer loop
vertex -0.5756636062499985 2.894056381880209 -0.5
vertex 0 2.9507542983214163 -0.5
vertex 0 2.999999999999999 -5.051514762044462e-15
endloop
endfacet
facet normal 0.09754966309535203 -0.9904383506609418 0.0975496630953514
outer loop
vertex -0.5756636062499985 2.894056381880209 -0.5
vertex 0 2.999999999999999 -5.051514762044462e-15
vertex -0.585270966048386 2.942355841209691 0
endloop
endfacet
facet normal 0.09754966309535211 -0.9904383506609419 -0.09754966309535142
outer loop
vertex -0.5756636062500015 2.8940563818802083 0.5
vertex -0.585270966048386 2.942355841209691 0
vertex 0 2.999999999999999 -5.051514762044462e-15
endloop
endfacet
facet normal 0.09754966309535211 -0.9904383506609419 -0.09754966309535142
outer loop
vertex -0.5756636062500015 2.8940563818802083 0.5
vertex 0 2.999999999999999 -5.051514762044462e-15
vertex 0 2.9507542983214177 0.5
endloop
endfacet
endsolid csg.js
