solid csg.js
facet normal -1 0 0
outer loop
vertex -10 -5 -0.5
vertex -10 -5 0.5
vertex -10 5 0.5
endloop
endfacet
facet normal -1 0 0
outer loop
vertex -10 -5 -0.5
vertex -10 5 0.5
vertex -10 5 -0.5
endloop
endfacet
facet normal 0 -1 0
outer loop
vertex -10 -5 -0.5
vertex 0 -5 -0.5
vertex 0 -5 0.5
endloop
endfacet
facet normal 0 -1 0
outer loop
vertex -10 -5 -0.5
vertex 0 -5 0.5
vertex -10 -5 0.5
endloop
endfacet
facet normal 0 1 0
outer loop
vertex -10 5 -0.5
vertex -10 5 0.5
vertex 0 5 0.5
endloop
endfacet
facet normal 0 1 0
outer loop
vertex -10 5 -0.5
vertex 0 5 0.5
vertex 0 5 -0.5
endloop
endfacet
facet normal 0 0 -1
outer loop
vertex 0 5 -0.5
vertex 0 3.5355339059327373 -0.5
vertex -10 3.5355339059327373 -0.5
endloop
endfacet
facet normal 0 0 -1
outer loop
vertex 0 5 -0.5
vertex -10 3.5355339059327373 -0.5
vertex -10 5 -0.5
endloop
endfacet
facet normal 0 0 -1
outer loop
vertex 13.08147545195113 15.20279579551077 -0.5
vertex 1.4142135623730958 3.5355339059327373 -0.5
vertex 0 3.5355339059327373 -0.5
endloop
endfacet
facet normal 0 0 -1
outer loop
vertex 13.08147545195113 15.20279579551077 -0.5
vertex 0 3.5355339059327373 -0.5
vertex 12.374368670764582 15.909902576697318 -0.5
endloop
endfacet
facet normal 0 0 -1
outer loop
vertex 1.4142135623730958 3.5355339059327373 -0.5
vertex 0.8294339547617764 2.950754298321418 -0.5
vertex -10 2.950754298321418 -0.5
endloop
endfacet
facet normal 0 0 -1
outer loop
vertex 1.4142135623730958 3.5355339059327373 -0.5
vertex -10 2.950754298321418 -0.5
vertex -10 3.5355339059327373 -0.5
endloop
endfacet
facet normal 0 0 -1
outer loop
vertex 1.2212453270876722e-15 2.950754298321418 -0.5
vertex -0.5756636062499993 2.894056381880209 -0.5
vertex -10 2.894056381880209 -0.5
endloop
endfacet
facet normal 0 0 -1
outer loop
vertex 1.2212453270876722e-15 2.950754298321418 -0.5
vertex -10 2.894056381880209 -0.5
vertex -10 2.950754298321418 -0.5
endloop
endfacet
facet normal 0 0 -1
outer loop
vertex 0.8294339547617764 2.950754298321418 -0.5
vertex 0.7727360383205674 2.894056381880209 -0.5
vertex 0.5756636062500017 2.894056381880209 -0.5
endloop
endfacet
facet normal 0 0 -1
outer loop
vertex 0.8294339547617764 2.950754298321418 -0.5
vertex 0.5756636062500017 2.894056381880209 -0.5
vertex 1.2212453270876722e-15 2.950754298321418 -0.5
endloop
endfacet
facet normal 0 0 -1
outer loop
vertex 0.7727360383205674 2.894056381880209 -0.5
vertex 0.7268685270505959 2.8481888706102376 -0.5
vertex 0.5756636062500017 2.894056381880209 -0.5
endloop
endfacet
facet normal 0 0 -1
outer loop
vertex -0.5756636062499993 2.894056381880209 -0.5
vertex -1.1292047829476848 2.7261415016888604 -0.5
vertex -10 2.7261415016888604 -0.5
endloop
endfacet
facet normal 0 0 -1
outer loop
vertex -0.5756636062499993 2.894056381880209 -0.5
vertex -10 2.7261415016888604 -0.5
vertex -10 2.894056381880209 -0.5
endloop
endfacet
facet normal 0 0 -1
outer loop
vertex -1.1292047829476848 2.7261415016888604 -0.5
vertex -1.639351253102022 2.4534625324253785 -0.5
vertex -10 2.4534625324253785 -0.5
endloop
endfacet
facet normal 0 0 -1
outer loop
vertex -1.1292047829476848 2.7261415016888604 -0.5
vertex -10 2.4534625324253785 -0.5
vertex -10 2.7261415016888604 -0.5
endloop
endfacet
facet normal 0 0 -1
outer loop
vertex -1.639351253102022 2.4534625324253785 -0.5
vertex -2.08649837395843 2.086498373958425 -0.5
vertex -10 2.086498373958425 -0.5
endloop
endfacet
facet normal 0 0 -1
outer loop
vertex -1.639351253102022 2.4534625324253785 -0.5
vertex -10 2.086498373958425 -0.5
vertex -10 2.4534625324253785 -0.5
endloop
endfacet
facet normal 0 0 -1
outer loop
vertex -2.08649837395843 2.086498373958425 -0.5
vertex -2.4534625324253776 1.6393512531020242 -0.5
vertex -10 1.6393512531020242 -0.5
endloop
endfacet
facet normal 0 0 -1
outer loop
vertex -2.08649837395843 2.086498373958425 -0.5
vertex -10 1.6393512531020242 -0.5
vertex -10 2.086498373958425 -0.5
endloop
endfacet
facet normal 0 0 -1
outer loop
vertex -2.4534625324253776 1.6393512531020242 -0.5
vertex -2.726141501688863 1.1292047829476792 -0.5
vertex -10 1.1292047829476792 -0.5
endloop
endfacet
facet normal 0 0 -1
outer loop
vertex -2.4534625324253776 1.6393512531020242 -0.5
vertex -10 1.1292047829476792 -0.5
vertex -10 1.6393512531020242 -0.5
endloop
endfacet
facet normal 0 0 -1
outer loop
vertex -2.726141501688863 1.1292047829476792 -0.5
vertex -2.894056381880209 0.5756636062500018 -0.5
vertex -10 0.5756636062500018 -0.5
endloop
endfacet
facet normal 0 0 -1
outer loop
vertex -2.726141501688863 1.1292047829476792 -0.5
vertex -10 0.5756636062500018 -0.5
vertex -10 1.1292047829476792 -0.5
endloop
endfacet
facet normal 0 0 -1
outer loop
vertex -2.894056381880209 0.5756636062500018 -0.5
vertex -2.9507542983214177 2.220446049250313e-15 -0.5
vertex -10 2.220446049250313e-15 -0.5
endloop
endfacet
facet normal 0 0 -1
outer loop
vertex -2.894056381880209 0.5756636062500018 -0.5
vertex -10 2.220446049250313e-15 -0.5
vertex -10 0.5756636062500018 -0.5
endloop
endfacet
facet normal 0 0 -1
outer loop
vertex -2.9507542983214177 2.220446049250313e-15 -0.5
vertex -2.8940563818802083 -0.5756636062500053 -0.5
vertex -10 -0.5756636062500053 -0.5
endloop
endfacet
facet normal 0 0 -1
outer loop
vertex -2.9507542983214177 2.220446049250313e-15 -0.5
vertex -10 -0.5756636062500053 -0.5
vertex -10 2.220446049250313e-15 -0.5
endloop
endfacet
facet normal 0 0 -1
outer loop
vertex -2.8940563818802083 -0.5756636062500053 -0.5
vertex -2.7261415016888626 -1.1292047829476788 -0.5
vertex -10 -1.1292047829476788 -0.5
endloop
endfacet
facet normal 0 0 -1
outer loop
vertex -2.8940563818802083 -0.5756636062500053 -0.5
vertex -10 -1.1292047829476788 -0.5
vertex -10 -0.5756636062500053 -0.5
endloop
endfacet
facet normal 0 0 -1
outer loop
vertex -2.7261415016888626 -1.1292047829476788 -0.5
vertex -2.4534625324253767 -1.6393512531020247 -0.5
vertex -10 -1.6393512531020247 -0.5
endloop
endfacet
facet normal 0 0 -1
outer loop
vertex -2.7261415016888626 -1.1292047829476788 -0.5
vertex -10 -1.6393512531020247 -0.5
vertex -10 -1.1292047829476788 -0.5
endloop
endfacet
facet normal 0 0 -1
outer loop
vertex -2.4534625324253767 -1.6393512531020247 -0.5
vertex -2.0864983739584257 -2.0864983739584293 -0.5
vertex -10 -2.0864983739584293 -0.5
endloop
endfacet
facet normal 0 0 -1
outer loop
vertex -2.4534625324253767 -1.6393512531020247 -0.5
vertex -10 -2.0864983739584293 -0.5
vertex -10 -1.6393512531020247 -0.5
endloop
endfacet
facet normal 0 0 -1
outer loop
vertex -2.0864983739584257 -2.0864983739584293 -0.5
vertex -1.6393512531020242 -2.4534625324253776 -0.5
vertex -10 -2.4534625324253776 -0.5
endloop
endfacet
facet normal 0 0 -1
outer loop
vertex -2.0864983739584257 -2.0864983739584293 -0.5
vertex -10 -2.4534625324253776 -0.5
vertex -10 -2.0864983739584293 -0.5
endloop
endfacet
facet normal 0 0 -1
outer loop
vertex -1.6393512531020242 -2.4534625324253776 -0.5
vertex -1.1292047829476823 -2.7261415016888613 -0.5
vertex -10 -2.7261415016888613 -0.5
endloop
endfacet
facet normal 0 0 -1
outer loop
vertex -1.6393512531020242 -2.4534625324253776 -0.5
vertex -10 -2.7261415016888613 -0.5
vertex -10 -2.4534625324253776 -0.5
endloop
endfacet
facet normal 0 0 -1
outer loop
vertex -1.1292047829476823 -2.7261415016888613 -0.5
vertex -0.5756636062500009 -2.8940563818802088 -0.5
vertex -10 -2.8940563818802088 -0.5
endloop
endfacet
facet normal 0 0 -1
outer loop
vertex -1.1292047829476823 -2.7261415016888613 -0.5
vertex -10 -2.8940563818802088 -0.5
vertex -10 -2.7261415016888613 -0.5
endloop
endfacet
facet normal 0 0 -1
outer loop
vertex 0.7727360383205667 -2.8940563818802088 -0.5
vertex 0.5756636062500001 -2.8940563818802088 -0.5
vertex 0.7268685270505953 -2.848188870610237 -0.5
endloop
endfacet
facet normal 0 0 -1
outer loop
vertex -0.5756636062500009 -2.8940563818802088 -0.5
vertex -3.552713678800501e-15 -2.9507542983214177 -0.5
vertex -10 -2.9507542983214177 -0.5
endloop
endfacet
facet normal 0 0 -1
outer loop
vertex -0.5756636062500009 -2.8940563818802088 -0.5
vertex -10 -2.9507542983214177 -0.5
vertex -10 -2.8940563818802088 -0.5
endloop
endfacet
facet normal 0 0 -1
outer loop
vertex 0.7727360383205667 -2.8940563818802088 -0.5
vertex 0.8294339547617757 -2.9507542983214177 -0.5
vertex -3.552713678800501e-15 -2.9507542983214177 -0.5
endloop
endfacet
facet normal 0 0 -1
outer loop
vertex 0.7727360383205667 -2.8940563818802088 -0.5
vertex -3.552713678800501e-15 -2.9507542983214177 -0.5
vertex 0.5756636062500001 -2.8940563818802088 -0.5
endloop
endfacet
facet normal 0 0 -1
outer loop
vertex 0.8294339547617757 -2.9507542983214177 -0.5
vertex 1.4142135623730956 -3.5355339059327378 -0.5
vertex -10 -3.5355339059327378 -0.5
endloop
endfacet
facet normal 0 0 -1
outer loop
vertex 0.8294339547617757 -2.9507542983214177 -0.5
vertex -10 -3.5355339059327378 -0.5
vertex -10 -2.9507542983214177 -0.5
endloop
endfacet
facet normal 0 0 -1
outer loop
vertex 0 -3.5355339059327378 -0.5
vertex 0 -5 -0.5
vertex -10 -5 -0.5
endloop
endfacet
facet normal 0 0 -1
outer loop
vertex 0 -3.5355339059327378 -0.5
vertex -10 -5 -0.5
vertex -10 -3.5355339059327378 -0.5
endloop
endfacet
facet normal 0 0 -1
outer loop
vertex 1.4142135623730956 -3.5355339059327378 -0.5
vertex 13.08147545195113 -15.20279579551077 -0.5
vertex 12.374368670764582 -15.909902576697318 -0.5
endloop
endfacet
facet normal 0 0 -1
outer loop
vertex 1.4142135623730956 -3.5355339059327378 -0.5
vertex 12.374368670764582 -15.909902576697318 -0.5
vertex 0 -3.5355339059327378 -0.5
endloop
endfacet
facet normal 0 0 1
outer loop
vertex 0 -5 0.5
vertex 0 -3.5355339059327373 0.5
vertex -10 -3.5355339059327373 0.5
endloop
endfacet
facet normal 0 0 1
outer loop
vertex 0 -5 0.5
vertex -10 -3.5355339059327373 0.5
vertex -10 -5 0.5
endloop
endfacet
facet normal 0 0 1
outer loop
vertex 13.08147545195113 -15.20279579551077 0.5
vertex 1.414213562373094 -3.5355339059327373 0.5
vertex 0 -3.5355339059327373 0.5
endloop
endfacet
facet normal 0 0 1
outer loop
vertex 13.08147545195113 -15.20279579551077 0.5
vertex 0 -3.5355339059327373 0.5
vertex 12.374368670764582 -15.909902576697318 0.5
endloop
endfacet
facet normal 0 0 1
outer loop
vertex 1.414213562373094 -3.5355339059327373 0.5
vertex 0.8294339547617755 -2.9507542983214177 0.5
vertex -10 -2.9507542983214177 0.5
endloop
endfacet
facet normal 0 0 1
outer loop
vertex 1.414213562373094 -3.5355339059327373 0.5
vertex -10 -2.9507542983214177 0.5
vertex -10 -3.5355339059327373 0.5
endloop
endfacet
facet normal 0 0 1
outer loop
vertex 2.6645352591003757e-15 -2.9507542983214177 0.5
vertex -0.575663606249996 -2.894056381880209 0.5
vertex -10 -2.894056381880209 0.5
endloop
endfacet
facet normal 0 0 1
outer loop
vertex 2.6645352591003757e-15 -2.9507542983214177 0.5
vertex -10 -2.894056381880209 0.5
vertex -10 -2.9507542983214177 0.5
endloop
endfacet
facet normal 0 0 1
outer loop
vertex 0.8294339547617755 -2.9507542983214177 0.5
vertex 0.772736038320567 -2.894056381880209 0.5
vertex 0.57566360625 -2.894056381880209 0.5
endloop
endfacet
facet normal 0 0 1
outer loop
vertex 0.8294339547617755 -2.9507542983214177 0.5
vertex 0.57566360625 -2.894056381880209 0.5
vertex 2.6645352591003757e-15 -2.9507542983214177 0.5
endloop
endfacet
facet normal 0 0 1
outer loop
vertex 0.772736038320567 -2.894056381880209 0.5
vertex 0.7268685270505953 -2.8481888706102376 0.5
vertex 0.57566360625 -2.894056381880209 0.5
endloop
endfacet
facet normal 0 0 1
outer loop
vertex -0.575663606249996 -2.894056381880209 0.5
vertex -1.1292047829476872 -2.7261415016888595 0.5
vertex -10 -2.7261415016888595 0.5
endloop
endfacet
facet normal 0 0 1
outer loop
vertex -0.575663606249996 -2.894056381880209 0.5
vertex -10 -2.7261415016888595 0.5
vertex -10 -2.894056381880209 0.5
endloop
endfacet
facet normal 0 0 1
outer loop
vertex -1.1292047829476872 -2.7261415016888595 0.5
vertex -1.6393512531020207 -2.45346253242538 0.5
vertex -10 -2.45346253242538 0.5
endloop
endfacet
facet normal 0 0 1
outer loop
vertex -1.1292047829476872 -2.7261415016888595 0.5
vertex -10 -2.45346253242538 0.5
vertex -10 -2.7261415016888595 0.5
endloop
endfacet
facet normal 0 0 1
outer loop
vertex -1.6393512531020207 -2.45346253242538 0.5
vertex -2.0864983739584293 -2.0864983739584257 0.5
vertex -10 -2.0864983739584257 0.5
endloop
endfacet
facet normal 0 0 1
outer loop
vertex -1.6393512531020207 -2.45346253242538 0.5
vertex -10 -2.0864983739584257 0.5
vertex -10 -2.45346253242538 0.5
endloop
endfacet
facet normal 0 0 1
outer loop
vertex -2.0864983739584293 -2.0864983739584257 0.5
vertex -2.453462532425379 -1.639351253102023 0.5
vertex -10 -1.639351253102023 0.5
endloop
endfacet
facet normal 0 0 1
outer loop
vertex -2.0864983739584293 -2.0864983739584257 0.5
vertex -10 -1.639351253102023 0.5
vertex -10 -2.0864983739584257 0.5
endloop
endfacet
facet normal 0 0 1
outer loop
vertex -2.453462532425379 -1.639351253102023 0.5
vertex -2.72614150168886 -1.1292047829476848 0.5
vertex -10 -1.1292047829476848 0.5
endloop
endfacet
facet normal 0 0 1
outer loop
vertex -2.453462532425379 -1.639351253102023 0.5
vertex -10 -1.1292047829476848 0.5
vertex -10 -1.639351253102023 0.5
endloop
endfacet
facet normal 0 0 1
outer loop
vertex -2.72614150168886 -1.1292047829476848 0.5
vertex -2.8940563818802088 -0.5756636062500009 0.5
vertex -10 -0.5756636062500009 0.5
endloop
endfacet
facet normal 0 0 1
outer loop
vertex -2.72614150168886 -1.1292047829476848 0.5
vertex -10 -0.5756636062500009 0.5
vertex -10 -1.1292047829476848 0.5
endloop
endfacet
facet normal 0 0 1
outer loop
vertex -2.8940563818802088 -0.5756636062500009 0.5
vertex -2.9507542983214172 -1.887379141862766e-15 0.5
vertex -10 -1.887379141862766e-15 0.5
endloop
endfacet
facet normal 0 0 1
outer loop
vertex -2.8940563818802088 -0.5756636062500009 0.5
vertex -10 -1.887379141862766e-15 0.5
vertex -10 -0.5756636062500009 0.5
endloop
endfacet
facet normal 0 0 1
outer loop
vertex -2.9507542983214172 -1.887379141862766e-15 0.5
vertex -2.8940563818802083 0.5756636062500048 0.5
vertex -10 0.5756636062500048 0.5
endloop
endfacet
facet normal 0 0 1
outer loop
vertex -2.9507542983214172 -1.887379141862766e-15 0.5
vertex -10 0.5756636062500048 0.5
vertex -10 -1.887379141862766e-15 0.5
endloop
endfacet
facet normal 0 0 1
outer loop
vertex -2.8940563818802083 0.5756636062500048 0.5
vertex -2.7261415016888604 1.1292047829476843 0.5
vertex -10 1.1292047829476843 0.5
endloop
endfacet
facet normal 0 0 1
outer loop
vertex -2.8940563818802083 0.5756636062500048 0.5
vertex -10 1.1292047829476843 0.5
vertex -10 0.5756636062500048 0.5
endloop
endfacet
facet normal 0 0 1
outer loop
vertex -2.7261415016888604 1.1292047829476843 0.5
vertex -2.45346253242538 1.6393512531020216 0.5
vertex -10 1.6393512531020216 0.5
endloop
endfacet
facet normal 0 0 1
outer loop
vertex -2.7261415016888604 1.1292047829476843 0.5
vertex -10 1.6393512531020216 0.5
vertex -10 1.1292047829476843 0.5
endloop
endfacet
facet normal 0 0 1
outer loop
vertex -2.45346253242538 1.6393512531020216 0.5
vertex -2.0864983739584244 2.0864983739584306 0.5
vertex -10 2.0864983739584306 0.5
endloop
endfacet
facet normal 0 0 1
outer loop
vertex -2.45346253242538 1.6393512531020216 0.5
vertex -10 2.0864983739584306 0.5
vertex -10 1.6393512531020216 0.5
endloop
endfacet
facet normal 0 0 1
outer loop
vertex -2.0864983739584244 2.0864983739584306 0.5
vertex -1.6393512531020251 2.4534625324253767 0.5
vertex -10 2.4534625324253767 0.5
endloop
endfacet
facet normal 0 0 1
outer loop
vertex -2.0864983739584244 2.0864983739584306 0.5
vertex -10 2.4534625324253767 0.5
vertex -10 2.0864983739584306 0.5
endloop
endfacet
facet normal 0 0 1
outer loop
vertex -1.6393512531020251 2.4534625324253767 0.5
vertex -1.129204782947685 2.7261415016888595 0.5
vertex -10 2.7261415016888595 0.5
endloop
endfacet
facet normal 0 0 1
outer loop
vertex -1.6393512531020251 2.4534625324253767 0.5
vertex -10 2.7261415016888595 0.5
vertex -10 2.4534625324253767 0.5
endloop
endfacet
facet normal 0 0 1
outer loop
vertex -1.129204782947685 2.7261415016888595 0.5
vertex -0.5756636062500007 2.8940563818802083 0.5
vertex -10 2.8940563818802083 0.5
endloop
endfacet
facet normal 0 0 1
outer loop
vertex -1.129204782947685 2.7261415016888595 0.5
vertex -10 2.8940563818802083 0.5
vertex -10 2.7261415016888595 0.5
endloop
endfacet
facet normal 0 0 1
outer loop
vertex 0.7727360383205655 2.8940563818802083 0.5
vertex 0.5756636062500027 2.8940563818802083 0.5
vertex 0.726868527050595 2.848188870610238 0.5
endloop
endfacet
facet normal 0 0 1
outer loop
vertex -0.5756636062500007 2.8940563818802083 0.5
vertex -1.6653345369377348e-15 2.9507542983214172 0.5
vertex -10 2.9507542983214172 0.5
endloop
endfacet
facet normal 0 0 1
outer loop
vertex -0.5756636062500007 2.8940563818802083 0.5
vertex -10 2.9507542983214172 0.5
vertex -10 2.8940563818802083 0.5
endloop
endfacet
facet normal 0 0 1
outer loop
vertex 0.7727360383205655 2.8940563818802083 0.5
vertex 0.8294339547617744 2.9507542983214172 0.5
vertex -1.6653345369377348e-15 2.9507542983214172 0.5
endloop
endfacet
facet normal 0 0 1
outer loop
vertex 0.7727360383205655 2.8940563818802083 0.5
vertex -1.6653345369377348e-15 2.9507542983214172 0.5
vertex 0.5756636062500027 2.8940563818802083 0.5
endloop
endfacet
facet normal 0 0 1
outer loop
vertex 0.8294339547617744 2.9507542983214172 0.5
vertex 1.4142135623730951 3.5355339059327378 0.5
vertex -10 3.5355339059327378 0.5
endloop
endfacet
facet normal 0 0 1
outer loop
vertex 0.8294339547617744 2.9507542983214172 0.5
vertex -10 3.5355339059327378 0.5
vertex -10 2.9507542983214172 0.5
endloop
endfacet
facet normal 0 0 1
outer loop
vertex 0 3.5355339059327378 0.5
vertex 0 5 0.5
vertex -10 5 0.5
endloop
endfacet
facet normal 0 0 1
outer loop
vertex 0 3.5355339059327378 0.5
vertex -10 5 0.5
vertex -10 3.5355339059327378 0.5
endloop
endfacet
facet normal 0 0 1
outer loop
vertex 1.4142135623730951 3.5355339059327378 0.5
vertex 13.08147545195113 15.20279579551077 0.5
vertex 12.374368670764582 15.909902576697318 0.5
endloop
endfacet
facet normal 0 0 1
outer loop
vertex 1.4142135623730951 3.5355339059327378 0.5
vertex 12.374368670764582 15.909902576697318 0.5
vertex 0 3.5355339059327378 0.5
endloop
endfacet
facet normal 1 0 0
outer loop
vertex 0 -3.5355339059327378 -0.5
vertex 0 -3.5355339059327373 0.5
vertex 0 -5 0.5
endloop
endfacet
facet normal 1 0 0
outer loop
vertex 0 -3.5355339059327378 -0.5
vertex 0 -5 0.5
vertex 0 -5 -0.5
endloop
endfacet
facet normal 1 0 0
outer loop
vertex 0 5 -0.5
vertex 0 5 0.5
vertex 0 3.5355339059327378 0.5
endloop
endfacet
facet normal 1 0 0
outer loop
vertex 0 5 -0.5
vertex 0 3.5355339059327378 0.5
vertex 0 3.5355339059327373 -0.5
endloop
endfacet
facet normal 0.7071067811865476 0.7071067811865476 0
outer loop
vertex 13.08147545195113 15.20279579551077 -0.5
vertex 12.374368670764582 15.909902576697318 -0.5
vertex 12.374368670764582 15.909902576697318 0.5
endloop
endfacet
facet normal 0.7071067811865476 0.7071067811865476 0
outer loop
vertex 13.08147545195113 15.20279579551077 -0.5
vertex 12.374368670764582 15.909902576697318 0.5
vertex 13.08147545195113 15.20279579551077 0.5
endloop
endfacet
facet normal -0.7071067811865475 0.7071067811865477 0
outer loop
vertex 0 3.5355339059327378 0.5
vertex 12.374368670764582 15.909902576697318 0.5
vertex 12.374368670764582 15.909902576697318 -0.5
endloop
endfacet
facet normal -0.7071067811865475 0.7071067811865477 0
outer loop
vertex 0 3.5355339059327378 0.5
vertex 12.374368670764582 15.909902576697318 -0.5
vertex 0 3.5355339059327373 -0.5
endloop
endfacet
facet normal 0.7071067811865476 -0.7071067811865476 0
outer loop
vertex 12.374368670764582 -15.909902576697318 -0.5
vertex 13.08147545195113 -15.20279579551077 -0.5
vertex 13.08147545195113 -15.20279579551077 0.5
endloop
endfacet
facet normal 0.7071067811865476 -0.7071067811865476 0
outer loop
vertex 12.374368670764582 -15.909902576697318 -0.5
vertex 13.08147545195113 -15.20279579551077 0.5
vertex 12.374368670764582 -15.909902576697318 0.5
endloop
endfacet
facet normal -0.7071067811865475 -0.7071067811865477 0
outer loop
vertex 12.374368670764582 -15.909902576697318 0.5
vertex 0 -3.5355339059327373 0.5
vertex 0 -3.5355339059327378 -0.5
endloop
endfacet
facet normal -0.7071067811865475 -0.7071067811865477 0
outer loop
vertex 12.374368670764582 -15.909902576697318 0.5
vertex 0 -3.5355339059327378 -0.5
vertex 12.374368670764582 -15.909902576697318 -0.5
endloop
endfacet
facet normal -0.09754966309535143 0.9904383506609419 0.09754966309535143
outer loop
vertex 0.5756636062500001 -2.8940563818802088 -0.5
vertex -3.552713678800501e-15 -2.9507542983214177 -0.5
vertex 1.8369701987210297e-16 -3 0
endloop
endfacet
facet normal -0.09754966309535143 0.9904383506609419 0.09754966309535143
outer loop
vertex 0.5756636062500001 -2.8940563818802088 -0.5
vertex 1.8369701987210297e-16 -3 0
vertex 0.585270966048385 -2.9423558412096913 0
endloop
endfacet
facet normal -0.09754966309535147 0.9904383506609419 -0.09754966309535143
outer loop
vertex 0.57566360625 -2.894056381880209 0.5
vertex 0.585270966048385 -2.9423558412096913 0
vertex 1.8369701987210297e-16 -3 0
endloop
endfacet
facet normal -0.09754966309535147 0.9904383506609419 -0.09754966309535143
outer loop
vertex 0.57566360625 -2.894056381880209 0.5
vertex 1.8369701987210297e-16 -3 0
vertex 2.6645352591003757e-15 -2.9507542983214177 0.5
endloop
endfacet
facet normal 0.09754966309535143 0.9904383506609419 0.09754966309535149
outer loop
vertex -3.552713678800501e-15 -2.9507542983214177 -0.5
vertex -0.5756636062500009 -2.8940563818802088 -0.5
vertex -0.5852709660483846 -2.9423558412096913 0
endloop
endfacet
facet normal 0.09754966309535143 0.9904383506609419 0.09754966309535149
outer loop
vertex -3.552713678800501e-15 -2.9507542983214177 -0.5
vertex -0.5852709660483846 -2.9423558412096913 0
vertex 1.8369701987210297e-16 -3 0
endloop
endfacet
facet normal 0.09754966309535147 0.9904383506609419 -0.09754966309535147
outer loop
vertex 2.6645352591003757e-15 -2.9507542983214177 0.5
vertex 1.8369701987210297e-16 -3 0
vertex -0.5852709660483846 -2.9423558412096913 0
endloop
endfacet
facet normal 0.09754966309535147 0.9904383506609419 -0.09754966309535147
outer loop
vertex 2.6645352591003757e-15 -2.9507542983214177 0.5
vertex -0.5852709660483846 -2.9423558412096913 0
vertex -0.575663606249996 -2.894056381880209 0.5
endloop
endfacet
facet normal 0.28890021043978115 0.9523763602892679 0.09754966309535175
outer loop
vertex -0.5756636062500009 -2.8940563818802088 -0.5
vertex -1.1292047829476823 -2.7261415016888613 -0.5
vertex -1.1480502970952693 -2.77163859753386 0
endloop
endfacet
facet normal 0.28890021043978115 0.9523763602892679 0.09754966309535175
outer loop
vertex -0.5756636062500009 -2.8940563818802088 -0.5
vertex -1.1480502970952693 -2.77163859753386 0
vertex -0.5852709660483846 -2.9423558412096913 0
endloop
endfacet
facet normal 0.2889002104397815 0.9523763602892679 -0.09754966309535176
outer loop
vertex -0.575663606249996 -2.894056381880209 0.5
vertex -0.5852709660483846 -2.9423558412096913 0
vertex -1.1480502970952693 -2.77163859753386 0
endloop
endfacet
facet normal 0.2889002104397815 0.9523763602892679 -0.09754966309535176
outer loop
vertex -0.575663606249996 -2.894056381880209 0.5
vertex -1.1480502970952693 -2.77163859753386 0
vertex -1.1292047829476872 -2.7261415016888595 0.5
endloop
endfacet
facet normal 0.469148484714114 0.8777150804904938 0.09754966309535115
outer loop
vertex -1.1292047829476823 -2.7261415016888613 -0.5
vertex -1.6393512531020242 -2.4534625324253776 -0.5
vertex -1.6667106990588059 -2.494408836907636 0
endloop
endfacet
facet normal 0.469148484714114 0.8777150804904938 0.09754966309535115
outer loop
vertex -1.1292047829476823 -2.7261415016888613 -0.5
vertex -1.6667106990588059 -2.494408836907636 0
vertex -1.1480502970952693 -2.77163859753386 0
endloop
endfacet
facet normal 0.4691484847141135 0.8777150804904941 -0.0975496630953511
outer loop
vertex -1.1292047829476872 -2.7261415016888595 0.5
vertex -1.1480502970952693 -2.77163859753386 0
vertex -1.6667106990588059 -2.494408836907636 0
endloop
endfacet
facet normal 0.4691484847141135 0.8777150804904941 -0.0975496630953511
outer loop
vertex -1.1292047829476872 -2.7261415016888595 0.5
vertex -1.6667106990588059 -2.494408836907636 0
vertex -1.6393512531020207 -2.45346253242538 0.5
endloop
endfacet
facet normal 0.6313676458223852 0.769323702376758 0.09754966309535124
outer loop
vertex -1.6393512531020242 -2.4534625324253776 -0.5
vertex -2.0864983739584257 -2.0864983739584293 -0.5
vertex -2.1213203435596424 -2.121320343559643 0
endloop
endfacet
facet normal 0.6313676458223852 0.769323702376758 0.09754966309535124
outer loop
vertex -1.6393512531020242 -2.4534625324253776 -0.5
vertex -2.1213203435596424 -2.121320343559643 0
vertex -1.6667106990588059 -2.494408836907636 0
endloop
endfacet
facet normal 0.6313676458223852 0.769323702376758 -0.0975496630953512
outer loop
vertex -1.6393512531020207 -2.45346253242538 0.5
vertex -1.6667106990588059 -2.494408836907636 0
vertex -2.1213203435596424 -2.121320343559643 0
endloop
endfacet
facet normal 0.6313676458223852 0.769323702376758 -0.0975496630953512
outer loop
vertex -1.6393512531020207 -2.45346253242538 0.5
vertex -2.1213203435596424 -2.121320343559643 0
vertex -2.0864983739584293 -2.0864983739584257 0.5
endloop
endfacet
facet normal 0.7693237023767575 0.6313676458223859 0.09754966309535114
outer loop
vertex -2.0864983739584257 -2.0864983739584293 -0.5
vertex -2.4534625324253767 -1.6393512531020247 -0.5
vertex -2.494408836907636 -1.6667106990588065 0
endloop
endfacet
facet normal 0.7693237023767575 0.6313676458223859 0.09754966309535114
outer loop
vertex -2.0864983739584257 -2.0864983739584293 -0.5
vertex -2.494408836907636 -1.6667106990588065 0
vertex -2.1213203435596424 -2.121320343559643 0
endloop
endfacet
facet normal 0.7693237023767575 0.6313676458223859 -0.09754966309535117
outer loop
vertex -2.0864983739584293 -2.0864983739584257 0.5
vertex -2.1213203435596424 -2.121320343559643 0
vertex -2.494408836907636 -1.6667106990588065 0
endloop
endfacet
facet normal 0.7693237023767575 0.6313676458223859 -0.09754966309535117
outer loop
vertex -2.0864983739584293 -2.0864983739584257 0.5
vertex -2.494408836907636 -1.6667106990588065 0
vertex -2.453462532425379 -1.639351253102023 0.5
endloop
endfacet
facet normal 0.8777150804904938 0.4691484847141139 0.09754966309535176
outer loop
vertex -2.4534625324253767 -1.6393512531020247 -0.5
vertex -2.7261415016888626 -1.1292047829476788 -0.5
vertex -2.77163859753386 -1.1480502970952697 0
endloop
endfacet
facet normal 0.8777150804904938 0.4691484847141139 0.09754966309535176
outer loop
vertex -2.4534625324253767 -1.6393512531020247 -0.5
vertex -2.77163859753386 -1.1480502970952697 0
vertex -2.494408836907636 -1.6667106990588065 0
endloop
endfacet
facet normal 0.8777150804904942 0.46914848471411336 -0.09754966309535175
outer loop
vertex -2.453462532425379 -1.639351253102023 0.5
vertex -2.494408836907636 -1.6667106990588065 0
vertex -2.77163859753386 -1.1480502970952697 0
endloop
endfacet
facet normal 0.8777150804904942 0.46914848471411336 -0.09754966309535175
outer loop
vertex -2.453462532425379 -1.639351253102023 0.5
vertex -2.77163859753386 -1.1480502970952697 0
vertex -2.72614150168886 -1.1292047829476848 0.5
endloop
endfacet
facet normal 0.9523763602892679 0.28890021043978154 0.09754966309535147
outer loop
vertex -2.7261415016888626 -1.1292047829476788 -0.5
vertex -2.8940563818802083 -0.5756636062500053 -0.5
vertex -2.9423558412096913 -0.5852709660483858 0
endloop
endfacet
facet normal 0.9523763602892679 0.28890021043978154 0.09754966309535147
outer loop
vertex -2.7261415016888626 -1.1292047829476788 -0.5
vertex -2.9423558412096913 -0.5852709660483858 0
vertex -2.77163859753386 -1.1480502970952697 0
endloop
endfacet
facet normal 0.9523763602892679 0.2889002104397818 -0.09754966309535144
outer loop
vertex -2.72614150168886 -1.1292047829476848 0.5
vertex -2.77163859753386 -1.1480502970952697 0
vertex -2.9423558412096913 -0.5852709660483858 0
endloop
endfacet
facet normal 0.9523763602892679 0.2889002104397818 -0.09754966309535144
outer loop
vertex -2.72614150168886 -1.1292047829476848 0.5
vertex -2.9423558412096913 -0.5852709660483858 0
vertex -2.8940563818802088 -0.5756636062500009 0.5
endloop
endfacet
facet normal 0.9904383506609419 0.0975496630953513 0.0975496630953514
outer loop
vertex -2.8940563818802083 -0.5756636062500053 -0.5
vertex -2.9507542983214177 2.220446049250313e-15 -0.5
vertex -3 -3.6739403974420594e-16 0
endloop
endfacet
facet normal 0.9904383506609419 0.0975496630953513 0.0975496630953514
outer loop
vertex -2.8940563818802083 -0.5756636062500053 -0.5
vertex -3 -3.6739403974420594e-16 0
vertex -2.9423558412096913 -0.5852709660483858 0
endloop
endfacet
facet normal 0.9904383506609419 0.09754966309535136 -0.0975496630953514
outer loop
vertex -2.8940563818802088 -0.5756636062500009 0.5
vertex -2.9423558412096913 -0.5852709660483858 0
vertex -3 -3.6739403974420594e-16 0
endloop
endfacet
facet normal 0.9904383506609419 0.09754966309535136 -0.0975496630953514
outer loop
vertex -2.8940563818802088 -0.5756636062500009 0.5
vertex -3 -3.6739403974420594e-16 0
vertex -2.9507542983214172 -1.887379141862766e-15 0.5
endloop
endfacet
facet normal 0.9904383506609419 -0.09754966309535133 0.09754966309535146
outer loop
vertex -2.9507542983214177 2.220446049250313e-15 -0.5
vertex -2.894056381880209 0.5756636062500018 -0.5
vertex -2.9423558412096913 0.585270966048385 0
endloop
endfacet
facet normal 0.9904383506609419 -0.09754966309535133 0.09754966309535146
outer loop
vertex -2.9507542983214177 2.220446049250313e-15 -0.5
vertex -2.9423558412096913 0.585270966048385 0
vertex -3 -3.6739403974420594e-16 0
endloop
endfacet
facet normal 0.9904383506609419 -0.09754966309535137 -0.09754966309535146
outer loop
vertex -2.9507542983214172 -1.887379141862766e-15 0.5
vertex -3 -3.6739403974420594e-16 0
vertex -2.9423558412096913 0.585270966048385 0
endloop
endfacet
facet normal 0.9904383506609419 -0.09754966309535137 -0.09754966309535146
outer loop
vertex -2.9507542983214172 -1.887379141862766e-15 0.5
vertex -2.9423558412096913 0.585270966048385 0
vertex -2.8940563818802083 0.5756636062500048 0.5
endloop
endfacet
facet normal 0.952376360289268 -0.28890021043978076 0.09754966309535171
outer loop
vertex -2.894056381880209 0.5756636062500018 -0.5
vertex -2.726141501688863 1.1292047829476792 -0.5
vertex -2.7716385975338604 1.148050297095269 0
endloop
endfacet
facet normal 0.952376360289268 -0.28890021043978076 0.09754966309535171
outer loop
vertex -2.894056381880209 0.5756636062500018 -0.5
vertex -2.7716385975338604 1.148050297095269 0
vertex -2.9423558412096913 0.585270966048385 0
endloop
endfacet
facet normal 0.952376360289268 -0.28890021043978104 -0.09754966309535178
outer loop
vertex -2.8940563818802083 0.5756636062500048 0.5
vertex -2.9423558412096913 0.585270966048385 0
vertex -2.7716385975338604 1.148050297095269 0
endloop
endfacet
facet normal 0.952376360289268 -0.28890021043978104 -0.09754966309535178
outer loop
vertex -2.8940563818802083 0.5756636062500048 0.5
vertex -2.7716385975338604 1.148050297095269 0
vertex -2.7261415016888604 1.1292047829476843 0.5
endloop
endfacet
facet normal 0.877715080490494 -0.46914848471411397 0.09754966309535112
outer loop
vertex -2.726141501688863 1.1292047829476792 -0.5
vertex -2.4534625324253776 1.6393512531020242 -0.5
vertex -2.4944088369076365 1.6667106990588059 0
endloop
endfacet
facet normal 0.877715080490494 -0.46914848471411397 0.09754966309535112
outer loop
vertex -2.726141501688863 1.1292047829476792 -0.5
vertex -2.4944088369076365 1.6667106990588059 0
vertex -2.7716385975338604 1.148050297095269 0
endloop
endfacet
facet normal 0.8777150804904943 -0.46914848471411347 -0.09754966309535111
outer loop
vertex -2.7261415016888604 1.1292047829476843 0.5
vertex -2.7716385975338604 1.148050297095269 0
vertex -2.4944088369076365 1.6667106990588059 0
endloop
endfacet
facet normal 0.8777150804904943 -0.46914848471411347 -0.09754966309535111
outer loop
vertex -2.7261415016888604 1.1292047829476843 0.5
vertex -2.4944088369076365 1.6667106990588059 0
vertex -2.45346253242538 1.6393512531020216 0.5
endloop
endfacet
facet normal 0.7693237023767576 -0.6313676458223857 0.09754966309535118
outer loop
vertex -2.4534625324253776 1.6393512531020242 -0.5
vertex -2.08649837395843 2.086498373958425 -0.5
vertex -2.121320343559643 2.1213203435596424 0
endloop
endfacet
facet normal 0.7693237023767576 -0.6313676458223857 0.09754966309535118
outer loop
vertex -2.4534625324253776 1.6393512531020242 -0.5
vertex -2.121320343559643 2.1213203435596424 0
vertex -2.4944088369076365 1.6667106990588059 0
endloop
endfacet
facet normal 0.7693237023767576 -0.6313676458223857 -0.09754966309535122
outer loop
vertex -2.45346253242538 1.6393512531020216 0.5
vertex -2.4944088369076365 1.6667106990588059 0
vertex -2.121320343559643 2.1213203435596424 0
endloop
endfacet
facet normal 0.7693237023767576 -0.6313676458223857 -0.09754966309535122
outer loop
vertex -2.45346253242538 1.6393512531020216 0.5
vertex -2.121320343559643 2.1213203435596424 0
vertex -2.0864983739584244 2.0864983739584306 0.5
endloop
endfacet
facet normal 0.6313676458223855 -0.769323702376758 0.0975496630953511
outer loop
vertex -2.08649837395843 2.086498373958425 -0.5
vertex -1.639351253102022 2.4534625324253785 -0.5
vertex -1.6667106990588065 2.4944088369076356 0
endloop
endfacet
facet normal 0.6313676458223855 -0.769323702376758 0.0975496630953511
outer loop
vertex -2.08649837395843 2.086498373958425 -0.5
vertex -1.6667106990588065 2.4944088369076356 0
vertex -2.121320343559643 2.1213203435596424 0
endloop
endfacet
facet normal 0.6313676458223855 -0.769323702376758 -0.09754966309535114
outer loop
vertex -2.0864983739584244 2.0864983739584306 0.5
vertex -2.121320343559643 2.1213203435596424 0
vertex -1.6667106990588065 2.4944088369076356 0
endloop
endfacet
facet normal 0.6313676458223855 -0.769323702376758 -0.09754966309535114
outer loop
vertex -2.0864983739584244 2.0864983739584306 0.5
vertex -1.6667106990588065 2.4944088369076356 0
vertex -1.6393512531020251 2.4534625324253767 0.5
endloop
endfacet
facet normal 0.4691484847141148 -0.8777150804904933 0.09754966309535171
outer loop
vertex -1.639351253102022 2.4534625324253785 -0.5
vertex -1.1292047829476848 2.7261415016888604 -0.5
vertex -1.148050297095271 2.7716385975338595 0
endloop
endfacet
facet normal 0.4691484847141148 -0.8777150804904933 0.09754966309535171
outer loop
vertex -1.639351253102022 2.4534625324253785 -0.5
vertex -1.148050297095271 2.7716385975338595 0
vertex -1.6667106990588065 2.4944088369076356 0
endloop
endfacet
facet normal 0.46914848471411436 -0.8777150804904937 -0.09754966309535172
outer loop
vertex -1.6393512531020251 2.4534625324253767 0.5
vertex -1.6667106990588065 2.4944088369076356 0
vertex -1.148050297095271 2.7716385975338595 0
endloop
endfacet
facet normal 0.46914848471411436 -0.8777150804904937 -0.09754966309535172
outer loop
vertex -1.6393512531020251 2.4534625324253767 0.5
vertex -1.148050297095271 2.7716385975338595 0
vertex -1.129204782947685 2.7261415016888595 0.5
endloop
endfacet
facet normal 0.28890021043978104 -0.9523763602892681 0.09754966309535143
outer loop
vertex -1.1292047829476848 2.7261415016888604 -0.5
vertex -0.5756636062499993 2.894056381880209 -0.5
vertex -0.585270966048386 2.942355841209691 0
endloop
endfacet
facet normal 0.28890021043978104 -0.9523763602892681 0.09754966309535143
outer loop
vertex -1.1292047829476848 2.7261415016888604 -0.5
vertex -0.585270966048386 2.942355841209691 0
vertex -1.148050297095271 2.7716385975338595 0
endloop
endfacet
facet normal 0.2889002104397813 -0.952376360289268 -0.09754966309535147
outer loop
vertex -1.129204782947685 2.7261415016888595 0.5
vertex -1.148050297095271 2.7716385975338595 0
vertex -0.585270966048386 2.942355841209691 0
endloop
endfacet
facet normal 0.2889002104397813 -0.952376360289268 -0.09754966309535147
outer loop
vertex -1.129204782947685 2.7261415016888595 0.5
vertex -0.585270966048386 2.942355841209691 0
vertex -0.5756636062500007 2.8940563818802083 0.5
endloop
endfacet
facet normal 0.09754966309535203 -0.9904383506609418 0.0975496630953514
outer loop
vertex -0.5756636062499993 2.894056381880209 -0.5
vertex 1.2212453270876722e-15 2.950754298321418 -0.5
vertex -5.51091059616309e-16 3 0
endloop
endfacet
facet normal 0.09754966309535203 -0.9904383506609418 0.0975496630953514
outer loop
vertex -0.5756636062499993 2.894056381880209 -0.5
vertex -5.51091059616309e-16 3 0
vertex -0.585270966048386 2.942355841209691 0
endloop
endfacet
facet normal 0.09754966309535211 -0.9904383506609419 -0.09754966309535142
outer loop
vertex -0.5756636062500007 2.8940563818802083 0.5
vertex -0.585270966048386 2.942355841209691 0
vertex -5.51091059616309e-16 3 0
endloop
endfacet
facet normal 0.09754966309535211 -0.9904383506609419 -0.09754966309535142
outer loop
vertex -0.5756636062500007 2.8940563818802083 0.5
vertex -5.51091059616309e-16 3 0
vertex -1.6653345369377348e-15 2.9507542983214172 0.5
endloop
endfacet
facet normal -0.0975496630953513 -0.9904383506609419 0.09754966309535144
outer loop
vertex 1.2212453270876722e-15 2.950754298321418 -0.5
vertex 0.5756636062500017 2.894056381880209 -0.5
vertex 0.5852709660483849 2.9423558412096913 0
endloop
endfacet
facet normal -0.0975496630953513 -0.9904383506609419 0.09754966309535144
outer loop
vertex 1.2212453270876722e-15 2.950754298321418 -0.5
vertex 0.5852709660483849 2.9423558412096913 0
vertex -5.51091059616309e-16 3 0
endloop
endfacet
facet normal -0.09754966309535136 -0.9904383506609419 -0.09754966309535146
outer loop
vertex -1.6653345369377348e-15 2.9507542983214172 0.5
vertex -5.51091059616309e-16 3 0
vertex 0.5852709660483849 2.9423558412096913 0
endloop
endfacet
facet normal -0.09754966309535136 -0.9904383506609419 -0.09754966309535146
outer loop
vertex -1.6653345369377348e-15 2.9507542983214172 0.5
vertex 0.5852709660483849 2.9423558412096913 0
vertex 0.5756636062500027 2.8940563818802083 0.5
endloop
endfacet
facet normal -0.28890021043978126 0.9523763602892679 0.09754966309535146
outer loop
vertex 0.7268685270505953 -2.848188870610237 -0.5
vertex 0.5756636062500001 -2.8940563818802088 -0.5
vertex 0.585270966048385 -2.9423558412096913 0
endloop
endfacet
facet normal -0.28890021043978126 0.9523763602892679 0.09754966309535146
outer loop
vertex 0.7268685270505953 -2.848188870610237 -0.5
vertex 0.585270966048385 -2.9423558412096913 0
vertex 0.7661626156508732 -2.887482959210515 0
endloop
endfacet
facet normal -0.28890021043978154 0.9523763602892679 -0.09754966309535147
outer loop
vertex 0.7268685270505953 -2.8481888706102376 0.5
vertex 0.7661626156508732 -2.887482959210515 0
vertex 0.585270966048385 -2.9423558412096913 0
endloop
endfacet
facet normal -0.28890021043978154 0.9523763602892679 -0.09754966309535147
outer loop
vertex 0.7268685270505953 -2.8481888706102376 0.5
vertex 0.585270966048385 -2.9423558412096913 0
vertex 0.57566360625 -2.894056381880209 0.5
endloop
endfacet
facet normal -0.288900210439781 -0.952376360289268 0.09754966309535178
outer loop
vertex 0.5756636062500017 2.894056381880209 -0.5
vertex 0.7268685270505959 2.8481888706102376 -0.5
vertex 0.7661626156508731 2.887482959210515 0
endloop
endfacet
facet normal -0.288900210439781 -0.952376360289268 0.09754966309535178
outer loop
vertex 0.5756636062500017 2.894056381880209 -0.5
vertex 0.7661626156508731 2.887482959210515 0
vertex 0.5852709660483849 2.9423558412096913 0
endloop
endfacet
facet normal -0.2889002104397813 -0.952376360289268 -0.09754966309535176
outer loop
vertex 0.726868527050595 2.848188870610238 0.5
vertex 0.5756636062500027 2.8940563818802083 0.5
vertex 0.5852709660483849 2.9423558412096913 0
endloop
endfacet
facet normal -0.2889002104397813 -0.952376360289268 -0.09754966309535176
outer loop
vertex 0.726868527050595 2.848188870610238 0.5
vertex 0.5852709660483849 2.9423558412096913 0
vertex 0.7661626156508731 2.887482959210515 0
endloop
endfacet
facet normal 0.7071067811865475 -0.7071067811865477 0
outer loop
vertex 13.08147545195113 15.20279579551077 0.5
vertex 0.7661626156508738 2.887482959210516 0.5
vertex 0.7661626156508738 2.887482959210516 -0.5
endloop
endfacet
facet normal 0.7071067811865475 -0.7071067811865477 0
outer loop
vertex 13.08147545195113 15.20279579551077 0.5
vertex 0.7661626156508738 2.887482959210516 -0.5
vertex 13.08147545195113 15.20279579551077 -0.5
endloop
endfacet
facet normal 0.7071067811865475 -0.7071067811865477 0
outer loop
vertex 0.7661626156508731 2.887482959210515 0
vertex 0.7268685270505959 2.8481888706102376 -0.5
vertex 0.7661626156508738 2.887482959210516 -0.5
endloop
endfacet
facet normal 0.7071067811865475 -0.7071067811865477 0
outer loop
vertex 0.7661626156508738 2.887482959210516 0.5
vertex 0.726868527050595 2.848188870610238 0.5
vertex 0.7661626156508731 2.887482959210515 0
endloop
endfacet
facet normal 0.7071067811865475 0.7071067811865477 0
outer loop
vertex 0.7661626156508732 -2.887482959210515 0
vertex 0.766162615650873 -2.887482959210515 -0.5
vertex 0.7268685270505953 -2.848188870610237 -0.5
endloop
endfacet
facet normal 0.7071067811865475 0.7071067811865477 0
outer loop
vertex 0.766162615650873 -2.887482959210515 0.5
vertex 0.7661626156508732 -2.887482959210515 0
vertex 0.7268685270505953 -2.8481888706102376 0.5
endloop
endfacet
facet normal 0.7071067811865475 0.7071067811865477 0
outer loop
vertex 0.766162615650873 -2.887482959210515 0.5
vertex 13.08147545195113 -15.20279579551077 0.5
vertex 13.08147545195113 -15.20279579551077 -0.5
endloop
endfacet
facet normal 0.7071067811865475 0.7071067811865477 0
outer loop
vertex 0.766162615650873 -2.887482959210515 0.5
vertex 13.08147545195113 -15.20279579551077 -0.5
vertex 0.766162615650873 -2.887482959210515 -0.5
endloop
endfacet
endsolid csg.js
